<mxfile host="app.diagrams.net" modified="2023-11-25T14:58:12.533Z" agent="Mozilla/5.0 (Windows NT 10.0; Win64; x64) AppleWebKit/537.36 (KHTML, like Gecko) Chrome/119.0.0.0 Safari/537.36" etag="uDNzZSsDaihFM4MX_7ip" version="22.1.3" type="device">
  <diagram name="Page-1" id="3bFsb7XKIF97850lUsgk">
    <mxGraphModel dx="1964" dy="610" grid="1" gridSize="10" guides="1" tooltips="1" connect="1" arrows="1" fold="1" page="1" pageScale="1" pageWidth="850" pageHeight="1100" math="0" shadow="0">
      <root>
        <mxCell id="0" />
        <mxCell id="1" parent="0" />
        <mxCell id="iAtJJU_avFMDJzIAtL9v-1" value="Admin" style="swimlane;fontStyle=1;align=center;verticalAlign=top;childLayout=stackLayout;horizontal=1;startSize=26;horizontalStack=0;resizeParent=1;resizeParentMax=0;resizeLast=0;collapsible=1;marginBottom=0;whiteSpace=wrap;html=1;fillColor=#dae8fc;strokeColor=#6c8ebf;" parent="1" vertex="1">
          <mxGeometry x="40" y="90" width="160" height="210" as="geometry" />
        </mxCell>
        <mxCell id="iAtJJU_avFMDJzIAtL9v-2" value="- a_Id :&amp;nbsp; int&lt;br&gt;- a_name : str&lt;br&gt;- a_Pass : str" style="text;strokeColor=none;fillColor=none;align=left;verticalAlign=top;spacingLeft=4;spacingRight=4;overflow=hidden;rotatable=0;points=[[0,0.5],[1,0.5]];portConstraint=eastwest;whiteSpace=wrap;html=1;" parent="iAtJJU_avFMDJzIAtL9v-1" vertex="1">
          <mxGeometry y="26" width="160" height="64" as="geometry" />
        </mxCell>
        <mxCell id="iAtJJU_avFMDJzIAtL9v-3" value="" style="line;strokeWidth=1;fillColor=none;align=left;verticalAlign=middle;spacingTop=-1;spacingLeft=3;spacingRight=3;rotatable=0;labelPosition=right;points=[];portConstraint=eastwest;strokeColor=inherit;" parent="iAtJJU_avFMDJzIAtL9v-1" vertex="1">
          <mxGeometry y="90" width="160" height="8" as="geometry" />
        </mxCell>
        <mxCell id="iAtJJU_avFMDJzIAtL9v-4" value="&lt;div&gt;- authenticate()&lt;/div&gt;&lt;div&gt;- changePassword()&lt;/div&gt;&lt;div&gt;- assignRights()&lt;/div&gt;&lt;div&gt;- addBook()&lt;/div&gt;&lt;div&gt;- deleteBook()&lt;/div&gt;&lt;div&gt;- updateBook()&lt;/div&gt;&lt;div&gt;- ImposeFine()&lt;/div&gt;" style="text;strokeColor=none;fillColor=none;align=left;verticalAlign=top;spacingLeft=4;spacingRight=4;overflow=hidden;rotatable=0;points=[[0,0.5],[1,0.5]];portConstraint=eastwest;whiteSpace=wrap;html=1;" parent="iAtJJU_avFMDJzIAtL9v-1" vertex="1">
          <mxGeometry y="98" width="160" height="112" as="geometry" />
        </mxCell>
        <mxCell id="kATebxuI1eywJf-C8LJU-1" value="User" style="swimlane;fontStyle=1;align=center;verticalAlign=top;childLayout=stackLayout;horizontal=1;startSize=26;horizontalStack=0;resizeParent=1;resizeParentMax=0;resizeLast=0;collapsible=1;marginBottom=0;whiteSpace=wrap;html=1;fillColor=#dae8fc;strokeColor=#6c8ebf;" parent="1" vertex="1">
          <mxGeometry x="280" y="20" width="160" height="290" as="geometry" />
        </mxCell>
        <mxCell id="kATebxuI1eywJf-C8LJU-2" value="&lt;div&gt;- U_ID: int&lt;/div&gt;&lt;div&gt;- U_Code: str&lt;/div&gt;&lt;div&gt;- U_FName: str&lt;/div&gt;&lt;div&gt;- U_LName : str&lt;/div&gt;&lt;div&gt;- U_Pass: str&lt;/div&gt;&lt;div&gt;- U_Addrs: str&lt;/div&gt;&lt;div&gt;- U_Cntct: str&lt;/div&gt;&lt;div&gt;- U_Type: str&lt;/div&gt;&lt;div&gt;- U_AllowBorrow: str&lt;/div&gt;&lt;div&gt;- U_BookRights: str&lt;br&gt;&lt;/div&gt;&lt;div&gt;- U_Block: str&lt;/div&gt;" style="text;strokeColor=none;fillColor=none;align=left;verticalAlign=top;spacingLeft=4;spacingRight=4;overflow=hidden;rotatable=0;points=[[0,0.5],[1,0.5]];portConstraint=eastwest;whiteSpace=wrap;html=1;" parent="kATebxuI1eywJf-C8LJU-1" vertex="1">
          <mxGeometry y="26" width="160" height="164" as="geometry" />
        </mxCell>
        <mxCell id="kATebxuI1eywJf-C8LJU-3" value="" style="line;strokeWidth=1;fillColor=none;align=left;verticalAlign=middle;spacingTop=-1;spacingLeft=3;spacingRight=3;rotatable=0;labelPosition=right;points=[];portConstraint=eastwest;strokeColor=inherit;" parent="kATebxuI1eywJf-C8LJU-1" vertex="1">
          <mxGeometry y="190" width="160" height="8" as="geometry" />
        </mxCell>
        <mxCell id="kATebxuI1eywJf-C8LJU-4" value="&lt;div&gt;- authenticate()&lt;/div&gt;&lt;div&gt;- borrowBook()&lt;/div&gt;&lt;div&gt;- returnBook()&lt;/div&gt;&lt;div&gt;- payFine()&lt;/div&gt;&lt;div&gt;+ displayInfo()&lt;br&gt;- searchBook()&lt;/div&gt;" style="text;strokeColor=none;fillColor=none;align=left;verticalAlign=top;spacingLeft=4;spacingRight=4;overflow=hidden;rotatable=0;points=[[0,0.5],[1,0.5]];portConstraint=eastwest;whiteSpace=wrap;html=1;" parent="kATebxuI1eywJf-C8LJU-1" vertex="1">
          <mxGeometry y="198" width="160" height="92" as="geometry" />
        </mxCell>
        <mxCell id="kATebxuI1eywJf-C8LJU-5" value="Book" style="swimlane;fontStyle=1;align=center;verticalAlign=top;childLayout=stackLayout;horizontal=1;startSize=26;horizontalStack=0;resizeParent=1;resizeParentMax=0;resizeLast=0;collapsible=1;marginBottom=0;whiteSpace=wrap;html=1;fillColor=#dae8fc;strokeColor=#6c8ebf;" parent="1" vertex="1">
          <mxGeometry x="-40" y="415" width="160" height="250" as="geometry" />
        </mxCell>
        <mxCell id="kATebxuI1eywJf-C8LJU-6" value="&lt;div&gt;- B_ID: int&lt;/div&gt;&lt;div&gt;- B_Code: str&lt;/div&gt;&lt;div&gt;- B_Title: str&lt;/div&gt;&lt;div&gt;- B_PYear : int&lt;/div&gt;&lt;div&gt;- B_ISBN: str&lt;/div&gt;&lt;div&gt;- B_Auth: str&lt;/div&gt;&lt;div&gt;- B_Copies: int&lt;/div&gt;" style="text;strokeColor=none;fillColor=none;align=left;verticalAlign=top;spacingLeft=4;spacingRight=4;overflow=hidden;rotatable=0;points=[[0,0.5],[1,0.5]];portConstraint=eastwest;whiteSpace=wrap;html=1;" parent="kATebxuI1eywJf-C8LJU-5" vertex="1">
          <mxGeometry y="26" width="160" height="114" as="geometry" />
        </mxCell>
        <mxCell id="kATebxuI1eywJf-C8LJU-7" value="" style="line;strokeWidth=1;fillColor=none;align=left;verticalAlign=middle;spacingTop=-1;spacingLeft=3;spacingRight=3;rotatable=0;labelPosition=right;points=[];portConstraint=eastwest;strokeColor=inherit;" parent="kATebxuI1eywJf-C8LJU-5" vertex="1">
          <mxGeometry y="140" width="160" height="8" as="geometry" />
        </mxCell>
        <mxCell id="kATebxuI1eywJf-C8LJU-8" value="&lt;div&gt;&lt;span style=&quot;background-color: initial;&quot;&gt;- borrowBook()&lt;/span&gt;&lt;br&gt;&lt;/div&gt;&lt;div&gt;- returnBook()&lt;/div&gt;&lt;div&gt;- checkAvailability()&lt;/div&gt;&lt;div&gt;- getBookDetails()&lt;/div&gt;&lt;div&gt;- addCopies()&lt;/div&gt;&lt;div&gt;- removeBook()&lt;/div&gt;&lt;div&gt;&lt;br&gt;&lt;/div&gt;" style="text;strokeColor=none;fillColor=none;align=left;verticalAlign=top;spacingLeft=4;spacingRight=4;overflow=hidden;rotatable=0;points=[[0,0.5],[1,0.5]];portConstraint=eastwest;whiteSpace=wrap;html=1;" parent="kATebxuI1eywJf-C8LJU-5" vertex="1">
          <mxGeometry y="148" width="160" height="102" as="geometry" />
        </mxCell>
        <mxCell id="kATebxuI1eywJf-C8LJU-9" value="Borrowing" style="swimlane;fontStyle=1;align=center;verticalAlign=top;childLayout=stackLayout;horizontal=1;startSize=26;horizontalStack=0;resizeParent=1;resizeParentMax=0;resizeLast=0;collapsible=1;marginBottom=0;whiteSpace=wrap;html=1;fillColor=#dae8fc;strokeColor=#6c8ebf;" parent="1" vertex="1">
          <mxGeometry x="190" y="415" width="160" height="178" as="geometry" />
        </mxCell>
        <mxCell id="kATebxuI1eywJf-C8LJU-10" value="&lt;div&gt;- BB_ID: int&lt;/div&gt;&lt;div&gt;- BB_RefNo: str&lt;/div&gt;&lt;div&gt;- BB_RefDt: Date&lt;/div&gt;&lt;div&gt;- BB_UID: int&lt;/div&gt;&lt;div&gt;- BB_BID: int&lt;/div&gt;&lt;div&gt;- BB_AlwDays: int&lt;/div&gt;" style="text;strokeColor=none;fillColor=none;align=left;verticalAlign=top;spacingLeft=4;spacingRight=4;overflow=hidden;rotatable=0;points=[[0,0.5],[1,0.5]];portConstraint=eastwest;whiteSpace=wrap;html=1;" parent="kATebxuI1eywJf-C8LJU-9" vertex="1">
          <mxGeometry y="26" width="160" height="104" as="geometry" />
        </mxCell>
        <mxCell id="Fyyh5n6LXPilEaY1F4Aa-3" value="" style="html=1;verticalAlign=bottom;endArrow=diamondThin;curved=0;rounded=0;endFill=1;endSize=18;" parent="kATebxuI1eywJf-C8LJU-9" edge="1">
          <mxGeometry relative="1" as="geometry">
            <mxPoint y="104" as="sourcePoint" />
            <mxPoint x="-70" y="104" as="targetPoint" />
          </mxGeometry>
        </mxCell>
        <mxCell id="kATebxuI1eywJf-C8LJU-11" value="" style="line;strokeWidth=1;fillColor=none;align=left;verticalAlign=middle;spacingTop=-1;spacingLeft=3;spacingRight=3;rotatable=0;labelPosition=right;points=[];portConstraint=eastwest;strokeColor=inherit;" parent="kATebxuI1eywJf-C8LJU-9" vertex="1">
          <mxGeometry y="130" width="160" height="8" as="geometry" />
        </mxCell>
        <mxCell id="kATebxuI1eywJf-C8LJU-12" value="&lt;div&gt;&lt;span style=&quot;background-color: initial;&quot;&gt;- issueBook()&lt;/span&gt;&lt;br&gt;&lt;/div&gt;&lt;div&gt;- checkMember()&lt;br&gt;&lt;/div&gt;" style="text;strokeColor=none;fillColor=none;align=left;verticalAlign=top;spacingLeft=4;spacingRight=4;overflow=hidden;rotatable=0;points=[[0,0.5],[1,0.5]];portConstraint=eastwest;whiteSpace=wrap;html=1;" parent="kATebxuI1eywJf-C8LJU-9" vertex="1">
          <mxGeometry y="138" width="160" height="40" as="geometry" />
        </mxCell>
        <mxCell id="kATebxuI1eywJf-C8LJU-13" value="ReturnBook" style="swimlane;fontStyle=1;align=center;verticalAlign=top;childLayout=stackLayout;horizontal=1;startSize=26;horizontalStack=0;resizeParent=1;resizeParentMax=0;resizeLast=0;collapsible=1;marginBottom=0;whiteSpace=wrap;html=1;fillColor=#dae8fc;strokeColor=#6c8ebf;" parent="1" vertex="1">
          <mxGeometry x="410" y="447" width="160" height="190" as="geometry" />
        </mxCell>
        <mxCell id="kATebxuI1eywJf-C8LJU-14" value="- BR_ID: int&lt;br&gt;- BR_RefNo: str&lt;br&gt;- BR_RefDt: Date&lt;br&gt;- BR_BBID: int&lt;br&gt;- BR_FineYN : Char" style="text;strokeColor=none;fillColor=none;align=left;verticalAlign=top;spacingLeft=4;spacingRight=4;overflow=hidden;rotatable=0;points=[[0,0.5],[1,0.5]];portConstraint=eastwest;whiteSpace=wrap;html=1;" parent="kATebxuI1eywJf-C8LJU-13" vertex="1">
          <mxGeometry y="26" width="160" height="84" as="geometry" />
        </mxCell>
        <mxCell id="kATebxuI1eywJf-C8LJU-15" value="" style="line;strokeWidth=1;fillColor=none;align=left;verticalAlign=middle;spacingTop=-1;spacingLeft=3;spacingRight=3;rotatable=0;labelPosition=right;points=[];portConstraint=eastwest;strokeColor=inherit;" parent="kATebxuI1eywJf-C8LJU-13" vertex="1">
          <mxGeometry y="110" width="160" height="8" as="geometry" />
        </mxCell>
        <mxCell id="kATebxuI1eywJf-C8LJU-16" value="- recordReturn()&lt;br&gt;- checkDueDate()&lt;br&gt;- checkFine()" style="text;strokeColor=none;fillColor=none;align=left;verticalAlign=top;spacingLeft=4;spacingRight=4;overflow=hidden;rotatable=0;points=[[0,0.5],[1,0.5]];portConstraint=eastwest;whiteSpace=wrap;html=1;" parent="kATebxuI1eywJf-C8LJU-13" vertex="1">
          <mxGeometry y="118" width="160" height="72" as="geometry" />
        </mxCell>
        <mxCell id="kATebxuI1eywJf-C8LJU-17" value="Fine Payment" style="swimlane;fontStyle=1;align=center;verticalAlign=top;childLayout=stackLayout;horizontal=1;startSize=26;horizontalStack=0;resizeParent=1;resizeParentMax=0;resizeLast=0;collapsible=1;marginBottom=0;whiteSpace=wrap;html=1;fillColor=#dae8fc;strokeColor=#6c8ebf;" parent="1" vertex="1">
          <mxGeometry x="620" y="442" width="160" height="180" as="geometry" />
        </mxCell>
        <mxCell id="kATebxuI1eywJf-C8LJU-18" value="- F_ID: int&lt;br&gt;- F_RefNo: str&lt;br&gt;- F_RefDt: Date&lt;br&gt;- F_IFID : int&lt;br&gt;- F_Amnt: float" style="text;strokeColor=none;fillColor=none;align=left;verticalAlign=top;spacingLeft=4;spacingRight=4;overflow=hidden;rotatable=0;points=[[0,0.5],[1,0.5]];portConstraint=eastwest;whiteSpace=wrap;html=1;" parent="kATebxuI1eywJf-C8LJU-17" vertex="1">
          <mxGeometry y="26" width="160" height="94" as="geometry" />
        </mxCell>
        <mxCell id="kATebxuI1eywJf-C8LJU-19" value="" style="line;strokeWidth=1;fillColor=none;align=left;verticalAlign=middle;spacingTop=-1;spacingLeft=3;spacingRight=3;rotatable=0;labelPosition=right;points=[];portConstraint=eastwest;strokeColor=inherit;" parent="kATebxuI1eywJf-C8LJU-17" vertex="1">
          <mxGeometry y="120" width="160" height="8" as="geometry" />
        </mxCell>
        <mxCell id="kATebxuI1eywJf-C8LJU-20" value="- recordFine()&lt;br&gt;- applyFine()" style="text;strokeColor=none;fillColor=none;align=left;verticalAlign=top;spacingLeft=4;spacingRight=4;overflow=hidden;rotatable=0;points=[[0,0.5],[1,0.5]];portConstraint=eastwest;whiteSpace=wrap;html=1;" parent="kATebxuI1eywJf-C8LJU-17" vertex="1">
          <mxGeometry y="128" width="160" height="52" as="geometry" />
        </mxCell>
        <mxCell id="kATebxuI1eywJf-C8LJU-21" value="" style="endArrow=block;endFill=0;html=1;rounded=0;endSize=10;" parent="1" edge="1">
          <mxGeometry width="160" relative="1" as="geometry">
            <mxPoint x="200" y="190" as="sourcePoint" />
            <mxPoint x="280" y="190" as="targetPoint" />
          </mxGeometry>
        </mxCell>
        <mxCell id="kATebxuI1eywJf-C8LJU-23" value="" style="endArrow=diamondThin;endFill=0;html=1;rounded=0;entryX=0.25;entryY=0;entryDx=0;entryDy=0;endSize=19;" parent="1" target="kATebxuI1eywJf-C8LJU-5" edge="1">
          <mxGeometry width="160" relative="1" as="geometry">
            <mxPoint x="80" y="300" as="sourcePoint" />
            <mxPoint x="80" y="390" as="targetPoint" />
            <Array as="points">
              <mxPoint x="80" y="360" />
              <mxPoint y="360" />
            </Array>
          </mxGeometry>
        </mxCell>
        <mxCell id="kATebxuI1eywJf-C8LJU-24" value="1" style="text;html=1;strokeColor=none;fillColor=none;align=center;verticalAlign=middle;whiteSpace=wrap;rounded=0;fontStyle=1" parent="1" vertex="1">
          <mxGeometry x="82" y="304" width="10" height="10" as="geometry" />
        </mxCell>
        <mxCell id="kATebxuI1eywJf-C8LJU-25" value="1...*" style="text;html=1;strokeColor=none;fillColor=none;align=center;verticalAlign=middle;whiteSpace=wrap;rounded=0;fontStyle=1" parent="1" vertex="1">
          <mxGeometry x="9" y="403" width="22" height="10" as="geometry" />
        </mxCell>
        <mxCell id="kATebxuI1eywJf-C8LJU-30" value="" style="endArrow=diamondThin;endFill=0;html=1;rounded=0;entryX=0.569;entryY=0;entryDx=0;entryDy=0;entryPerimeter=0;exitX=0.438;exitY=1;exitDx=0;exitDy=0;exitPerimeter=0;endSize=18;" parent="1" source="kATebxuI1eywJf-C8LJU-4" target="kATebxuI1eywJf-C8LJU-9" edge="1">
          <mxGeometry width="160" relative="1" as="geometry">
            <mxPoint x="360" y="340" as="sourcePoint" />
            <mxPoint x="360" y="400" as="targetPoint" />
            <Array as="points">
              <mxPoint x="350" y="340" />
              <mxPoint x="350" y="380" />
              <mxPoint x="280" y="380" />
              <mxPoint x="281" y="390" />
            </Array>
          </mxGeometry>
        </mxCell>
        <mxCell id="kATebxuI1eywJf-C8LJU-32" value="1" style="text;html=1;strokeColor=none;fillColor=none;align=center;verticalAlign=middle;whiteSpace=wrap;rounded=0;fontStyle=1" parent="1" vertex="1">
          <mxGeometry x="351" y="320" width="10" height="10" as="geometry" />
        </mxCell>
        <mxCell id="kATebxuI1eywJf-C8LJU-33" value="1...*" style="text;html=1;strokeColor=none;fillColor=none;align=center;verticalAlign=middle;whiteSpace=wrap;rounded=0;fontStyle=1" parent="1" vertex="1">
          <mxGeometry x="290" y="403" width="22" height="10" as="geometry" />
        </mxCell>
        <mxCell id="kATebxuI1eywJf-C8LJU-34" value="" style="endArrow=diamondThin;endFill=0;html=1;rounded=0;endSize=18;entryX=0.563;entryY=0.016;entryDx=0;entryDy=0;entryPerimeter=0;exitX=0.569;exitY=1;exitDx=0;exitDy=0;exitPerimeter=0;" parent="1" edge="1" source="kATebxuI1eywJf-C8LJU-4">
          <mxGeometry width="160" relative="1" as="geometry">
            <mxPoint x="370" y="316" as="sourcePoint" />
            <mxPoint x="500.0799999999999" y="449.03999999999996" as="targetPoint" />
            <Array as="points">
              <mxPoint x="370" y="391" />
              <mxPoint x="499" y="391" />
            </Array>
          </mxGeometry>
        </mxCell>
        <mxCell id="kATebxuI1eywJf-C8LJU-35" value="1" style="text;html=1;strokeColor=none;fillColor=none;align=center;verticalAlign=middle;whiteSpace=wrap;rounded=0;fontStyle=1" parent="1" vertex="1">
          <mxGeometry x="371" y="320" width="10" height="10" as="geometry" />
        </mxCell>
        <mxCell id="kATebxuI1eywJf-C8LJU-36" value="1...*" style="text;html=1;strokeColor=none;fillColor=none;align=center;verticalAlign=middle;whiteSpace=wrap;rounded=0;fontStyle=1" parent="1" vertex="1">
          <mxGeometry x="508" y="434" width="22" height="10" as="geometry" />
        </mxCell>
        <mxCell id="kATebxuI1eywJf-C8LJU-37" value="" style="endArrow=diamondThin;endFill=0;html=1;rounded=0;exitX=0.863;exitY=1.012;exitDx=0;exitDy=0;exitPerimeter=0;entryX=0.394;entryY=0;entryDx=0;entryDy=0;entryPerimeter=0;endSize=18;" parent="1" source="kATebxuI1eywJf-C8LJU-4" target="kATebxuI1eywJf-C8LJU-17" edge="1">
          <mxGeometry width="160" relative="1" as="geometry">
            <mxPoint x="420" y="331" as="sourcePoint" />
            <mxPoint x="750" y="400" as="targetPoint" />
            <Array as="points">
              <mxPoint x="420" y="381" />
              <mxPoint x="683" y="380" />
            </Array>
          </mxGeometry>
        </mxCell>
        <mxCell id="kATebxuI1eywJf-C8LJU-38" value="1...*" style="text;html=1;strokeColor=none;fillColor=none;align=center;verticalAlign=middle;whiteSpace=wrap;rounded=0;fontStyle=1" parent="1" vertex="1">
          <mxGeometry x="650" y="429" width="22" height="10" as="geometry" />
        </mxCell>
        <mxCell id="kATebxuI1eywJf-C8LJU-39" value="1" style="text;html=1;strokeColor=none;fillColor=none;align=center;verticalAlign=middle;whiteSpace=wrap;rounded=0;fontStyle=1" parent="1" vertex="1">
          <mxGeometry x="423" y="323" width="10" height="10" as="geometry" />
        </mxCell>
        <mxCell id="kATebxuI1eywJf-C8LJU-41" value="1" style="text;html=1;strokeColor=none;fillColor=none;align=center;verticalAlign=middle;whiteSpace=wrap;rounded=0;fontStyle=1" parent="1" vertex="1">
          <mxGeometry x="121" y="527" width="10" height="10" as="geometry" />
        </mxCell>
        <mxCell id="kATebxuI1eywJf-C8LJU-42" value="0...*" style="text;html=1;strokeColor=none;fillColor=none;align=center;verticalAlign=middle;whiteSpace=wrap;rounded=0;fontStyle=1" parent="1" vertex="1">
          <mxGeometry x="166" y="523" width="22" height="10" as="geometry" />
        </mxCell>
        <mxCell id="kATebxuI1eywJf-C8LJU-49" value="1" style="text;html=1;strokeColor=none;fillColor=none;align=left;verticalAlign=middle;whiteSpace=wrap;rounded=0;fontStyle=1" parent="1" vertex="1">
          <mxGeometry x="352" y="528" width="22" height="10" as="geometry" />
        </mxCell>
        <mxCell id="kATebxuI1eywJf-C8LJU-50" value="1" style="text;html=1;strokeColor=none;fillColor=none;align=right;verticalAlign=middle;whiteSpace=wrap;rounded=0;fontStyle=1" parent="1" vertex="1">
          <mxGeometry x="386" y="524" width="22" height="10" as="geometry" />
        </mxCell>
        <mxCell id="3Dwb_GJY3mBXqQUWksG5-1" value="" style="endArrow=diamondThin;endFill=0;html=1;rounded=0;exitX=0.156;exitY=0.988;exitDx=0;exitDy=0;exitPerimeter=0;entryX=0.875;entryY=0.022;entryDx=0;entryDy=0;entryPerimeter=0;endSize=18;" parent="1" source="kATebxuI1eywJf-C8LJU-4" edge="1">
          <mxGeometry width="160" relative="1" as="geometry">
            <mxPoint x="305" y="325" as="sourcePoint" />
            <mxPoint x="100" y="415.05999999999995" as="targetPoint" />
            <Array as="points">
              <mxPoint x="305" y="335" />
              <mxPoint x="305" y="365" />
              <mxPoint x="236" y="365" />
              <mxPoint x="100" y="365" />
            </Array>
          </mxGeometry>
        </mxCell>
        <mxCell id="3Dwb_GJY3mBXqQUWksG5-2" value="1...*" style="text;html=1;strokeColor=none;fillColor=none;align=center;verticalAlign=middle;whiteSpace=wrap;rounded=0;fontStyle=1" parent="1" vertex="1">
          <mxGeometry x="106" y="404" width="22" height="10" as="geometry" />
        </mxCell>
        <mxCell id="3Dwb_GJY3mBXqQUWksG5-3" value="1" style="text;html=1;strokeColor=none;fillColor=none;align=center;verticalAlign=middle;whiteSpace=wrap;rounded=0;fontStyle=1" parent="1" vertex="1">
          <mxGeometry x="305" y="322" width="10" height="10" as="geometry" />
        </mxCell>
        <mxCell id="GniAdA_vX6lkKJarq4rK-1" value="Impose Fine" style="swimlane;fontStyle=1;align=center;verticalAlign=top;childLayout=stackLayout;horizontal=1;startSize=26;horizontalStack=0;resizeParent=1;resizeParentMax=0;resizeLast=0;collapsible=1;marginBottom=0;whiteSpace=wrap;html=1;fillColor=#dae8fc;strokeColor=#6c8ebf;" parent="1" vertex="1">
          <mxGeometry x="408" y="700" width="160" height="180" as="geometry" />
        </mxCell>
        <mxCell id="GniAdA_vX6lkKJarq4rK-2" value="- IF_ID: int&lt;br&gt;- IF_RefNo: str&lt;br&gt;- IF_RefDt: Date&lt;br&gt;- F_BRID: int&lt;br&gt;- F_Amnt: float" style="text;strokeColor=none;fillColor=none;align=left;verticalAlign=top;spacingLeft=4;spacingRight=4;overflow=hidden;rotatable=0;points=[[0,0.5],[1,0.5]];portConstraint=eastwest;whiteSpace=wrap;html=1;" parent="GniAdA_vX6lkKJarq4rK-1" vertex="1">
          <mxGeometry y="26" width="160" height="84" as="geometry" />
        </mxCell>
        <mxCell id="GniAdA_vX6lkKJarq4rK-3" value="" style="line;strokeWidth=1;fillColor=none;align=left;verticalAlign=middle;spacingTop=-1;spacingLeft=3;spacingRight=3;rotatable=0;labelPosition=right;points=[];portConstraint=eastwest;strokeColor=inherit;" parent="GniAdA_vX6lkKJarq4rK-1" vertex="1">
          <mxGeometry y="110" width="160" height="8" as="geometry" />
        </mxCell>
        <mxCell id="GniAdA_vX6lkKJarq4rK-4" value="- ImposeFine()&lt;br&gt;- getLateReturnBookList()&lt;br&gt;- calculateTotalFine()&lt;br&gt;" style="text;strokeColor=none;fillColor=none;align=left;verticalAlign=top;spacingLeft=4;spacingRight=4;overflow=hidden;rotatable=0;points=[[0,0.5],[1,0.5]];portConstraint=eastwest;whiteSpace=wrap;html=1;" parent="GniAdA_vX6lkKJarq4rK-1" vertex="1">
          <mxGeometry y="118" width="160" height="62" as="geometry" />
        </mxCell>
        <mxCell id="GniAdA_vX6lkKJarq4rK-9" value="1" style="text;html=1;strokeColor=none;fillColor=none;align=center;verticalAlign=middle;whiteSpace=wrap;rounded=0;fontStyle=1" parent="1" vertex="1">
          <mxGeometry x="785" y="542" width="10" height="10" as="geometry" />
        </mxCell>
        <mxCell id="GniAdA_vX6lkKJarq4rK-10" value="1" style="text;html=1;strokeColor=none;fillColor=none;align=center;verticalAlign=middle;whiteSpace=wrap;rounded=0;fontStyle=1" parent="1" vertex="1">
          <mxGeometry x="571" y="749" width="10" height="10" as="geometry" />
        </mxCell>
        <mxCell id="GniAdA_vX6lkKJarq4rK-13" value="" style="endArrow=diamondThin;endFill=1;html=1;rounded=0;entryX=1.006;entryY=0.635;entryDx=0;entryDy=0;entryPerimeter=0;endSize=18;" parent="1" edge="1">
          <mxGeometry width="160" relative="1" as="geometry">
            <mxPoint x="780" y="537" as="sourcePoint" />
            <mxPoint x="568" y="737.99" as="targetPoint" />
            <Array as="points">
              <mxPoint x="800" y="537" />
              <mxPoint x="800" y="738" />
            </Array>
          </mxGeometry>
        </mxCell>
        <mxCell id="GniAdA_vX6lkKJarq4rK-18" value="1" style="text;html=1;strokeColor=none;fillColor=none;align=center;verticalAlign=middle;whiteSpace=wrap;rounded=0;fontStyle=1" parent="1" vertex="1">
          <mxGeometry x="573" y="495" width="10" height="10" as="geometry" />
        </mxCell>
        <mxCell id="GniAdA_vX6lkKJarq4rK-19" value="1" style="text;html=1;strokeColor=none;fillColor=none;align=center;verticalAlign=middle;whiteSpace=wrap;rounded=0;fontStyle=1" parent="1" vertex="1">
          <mxGeometry x="395" y="773" width="10" height="10" as="geometry" />
        </mxCell>
        <mxCell id="GniAdA_vX6lkKJarq4rK-20" value="" style="endArrow=diamondThin;endFill=0;html=1;rounded=0;exitX=0;exitY=0.25;exitDx=0;exitDy=0;entryX=0.006;entryY=0.351;entryDx=0;entryDy=0;entryPerimeter=0;endSize=18;" parent="1" target="GniAdA_vX6lkKJarq4rK-2" edge="1">
          <mxGeometry width="160" relative="1" as="geometry">
            <mxPoint x="50" y="299.5" as="sourcePoint" />
            <mxPoint x="408.0799999999999" y="754.028" as="targetPoint" />
            <Array as="points">
              <mxPoint x="50" y="350" />
              <mxPoint x="-70" y="350" />
              <mxPoint x="-70" y="680" />
              <mxPoint x="-30" y="680" />
              <mxPoint x="50" y="680" />
              <mxPoint x="170" y="680" />
              <mxPoint x="350" y="680" />
              <mxPoint x="350" y="755" />
            </Array>
          </mxGeometry>
        </mxCell>
        <mxCell id="GniAdA_vX6lkKJarq4rK-21" value="1" style="text;html=1;strokeColor=none;fillColor=none;align=center;verticalAlign=middle;whiteSpace=wrap;rounded=0;fontStyle=1" parent="1" vertex="1">
          <mxGeometry x="50" y="303" width="10" height="10" as="geometry" />
        </mxCell>
        <mxCell id="GniAdA_vX6lkKJarq4rK-22" value="1...*" style="text;html=1;strokeColor=none;fillColor=none;align=center;verticalAlign=middle;whiteSpace=wrap;rounded=0;fontStyle=1" parent="1" vertex="1">
          <mxGeometry x="391" y="737" width="10" height="10" as="geometry" />
        </mxCell>
        <mxCell id="Fyyh5n6LXPilEaY1F4Aa-5" value="" style="html=1;verticalAlign=bottom;endArrow=diamondThin;curved=0;rounded=0;endFill=1;endSize=18;" parent="1" edge="1">
          <mxGeometry relative="1" as="geometry">
            <mxPoint x="410" y="520" as="sourcePoint" />
            <mxPoint x="350" y="520" as="targetPoint" />
          </mxGeometry>
        </mxCell>
        <mxCell id="Fyyh5n6LXPilEaY1F4Aa-6" value="" style="html=1;verticalAlign=bottom;endArrow=diamondThin;curved=0;rounded=0;exitX=0.013;exitY=0.524;exitDx=0;exitDy=0;exitPerimeter=0;endFill=1;endSize=18;" parent="1" source="GniAdA_vX6lkKJarq4rK-2" edge="1">
          <mxGeometry relative="1" as="geometry">
            <mxPoint x="404" y="770" as="sourcePoint" />
            <mxPoint x="570" y="482" as="targetPoint" />
            <Array as="points">
              <mxPoint x="370" y="770" />
              <mxPoint x="370" y="680" />
              <mxPoint x="596" y="680" />
              <mxPoint x="596" y="480" />
            </Array>
          </mxGeometry>
        </mxCell>
        <mxCell id="Fyyh5n6LXPilEaY1F4Aa-8" value="1" style="text;html=1;strokeColor=none;fillColor=none;align=center;verticalAlign=middle;whiteSpace=wrap;rounded=0;fontStyle=1" parent="1" vertex="1">
          <mxGeometry x="202" y="194" width="10" height="10" as="geometry" />
        </mxCell>
        <mxCell id="Fyyh5n6LXPilEaY1F4Aa-9" value="1...*" style="text;html=1;strokeColor=none;fillColor=none;align=center;verticalAlign=middle;whiteSpace=wrap;rounded=0;fontStyle=1" parent="1" vertex="1">
          <mxGeometry x="262" y="196" width="10" height="10" as="geometry" />
        </mxCell>
        <mxCell id="42-sXxmprqxyC4y5htIx-4" value="Reporting" style="swimlane;fontStyle=1;align=center;verticalAlign=top;childLayout=stackLayout;horizontal=1;startSize=26;horizontalStack=0;resizeParent=1;resizeParentMax=0;resizeLast=0;collapsible=1;marginBottom=0;whiteSpace=wrap;html=1;fillColor=#dae8fc;strokeColor=#6c8ebf;" vertex="1" parent="1">
          <mxGeometry x="131" y="700" width="160" height="140" as="geometry" />
        </mxCell>
        <mxCell id="42-sXxmprqxyC4y5htIx-5" value="- Rpt_ID: int&lt;br&gt;- Rpt_UID: int&lt;br&gt;- Rpt_GenDate: Date&lt;br&gt;- Rpt_Name: string" style="text;strokeColor=none;fillColor=none;align=left;verticalAlign=top;spacingLeft=4;spacingRight=4;overflow=hidden;rotatable=0;points=[[0,0.5],[1,0.5]];portConstraint=eastwest;whiteSpace=wrap;html=1;" vertex="1" parent="42-sXxmprqxyC4y5htIx-4">
          <mxGeometry y="26" width="160" height="74" as="geometry" />
        </mxCell>
        <mxCell id="42-sXxmprqxyC4y5htIx-6" value="" style="line;strokeWidth=1;fillColor=none;align=left;verticalAlign=middle;spacingTop=-1;spacingLeft=3;spacingRight=3;rotatable=0;labelPosition=right;points=[];portConstraint=eastwest;strokeColor=inherit;" vertex="1" parent="42-sXxmprqxyC4y5htIx-4">
          <mxGeometry y="100" width="160" height="8" as="geometry" />
        </mxCell>
        <mxCell id="42-sXxmprqxyC4y5htIx-7" value="- ViewReport()&lt;br&gt;" style="text;strokeColor=none;fillColor=none;align=left;verticalAlign=top;spacingLeft=4;spacingRight=4;overflow=hidden;rotatable=0;points=[[0,0.5],[1,0.5]];portConstraint=eastwest;whiteSpace=wrap;html=1;" vertex="1" parent="42-sXxmprqxyC4y5htIx-4">
          <mxGeometry y="108" width="160" height="32" as="geometry" />
        </mxCell>
        <mxCell id="42-sXxmprqxyC4y5htIx-8" value="" style="endArrow=diamondThin;endFill=0;html=1;rounded=0;exitX=0.006;exitY=0.67;exitDx=0;exitDy=0;exitPerimeter=0;endSize=18;entryX=0;entryY=0.324;entryDx=0;entryDy=0;entryPerimeter=0;" edge="1" parent="1" source="iAtJJU_avFMDJzIAtL9v-4" target="42-sXxmprqxyC4y5htIx-5">
          <mxGeometry width="160" relative="1" as="geometry">
            <mxPoint x="31" y="212.94" as="sourcePoint" />
            <mxPoint x="-80" y="860" as="targetPoint" />
            <Array as="points">
              <mxPoint x="-38" y="262.94" />
              <mxPoint x="-80" y="263" />
              <mxPoint x="-80" y="750" />
            </Array>
          </mxGeometry>
        </mxCell>
        <mxCell id="42-sXxmprqxyC4y5htIx-9" value="1" style="text;html=1;strokeColor=none;fillColor=none;align=center;verticalAlign=middle;whiteSpace=wrap;rounded=0;fontStyle=1" vertex="1" parent="1">
          <mxGeometry x="26" y="268" width="10" height="10" as="geometry" />
        </mxCell>
        <mxCell id="42-sXxmprqxyC4y5htIx-10" value="1...*" style="text;html=1;strokeColor=none;fillColor=none;align=center;verticalAlign=middle;whiteSpace=wrap;rounded=0;fontStyle=1" vertex="1" parent="1">
          <mxGeometry x="112" y="730" width="10" height="10" as="geometry" />
        </mxCell>
        <mxCell id="42-sXxmprqxyC4y5htIx-11" value="" style="endArrow=diamondThin;endFill=0;html=1;rounded=0;exitX=1.006;exitY=0.792;exitDx=0;exitDy=0;exitPerimeter=0;endSize=18;" edge="1" parent="1" source="kATebxuI1eywJf-C8LJU-2">
          <mxGeometry width="160" relative="1" as="geometry">
            <mxPoint x="961" y="182" as="sourcePoint" />
            <mxPoint x="290" y="760" as="targetPoint" />
            <Array as="points">
              <mxPoint x="810" y="180" />
              <mxPoint x="810" y="900" />
              <mxPoint x="320" y="900" />
              <mxPoint x="320" y="760" />
            </Array>
          </mxGeometry>
        </mxCell>
        <mxCell id="42-sXxmprqxyC4y5htIx-13" value="1...*" style="text;html=1;strokeColor=none;fillColor=none;align=center;verticalAlign=middle;whiteSpace=wrap;rounded=0;fontStyle=1" vertex="1" parent="1">
          <mxGeometry x="299" y="740" width="10" height="10" as="geometry" />
        </mxCell>
        <mxCell id="42-sXxmprqxyC4y5htIx-14" value="1" style="text;html=1;strokeColor=none;fillColor=none;align=center;verticalAlign=middle;whiteSpace=wrap;rounded=0;fontStyle=1" vertex="1" parent="1">
          <mxGeometry x="445" y="166" width="10" height="10" as="geometry" />
        </mxCell>
      </root>
    </mxGraphModel>
  </diagram>
</mxfile>
